# xmcd
#
# Track frame offsets:
#	150
#	10052
#	19623
#	30052
#	40346
#	51146
#	66473
#	75907
#	87780
#	97477
#
# Disc length: 1461 seconds
#
# Revision: 0
# Processed by: cddbd v1.5.2PL0 Copyright (c) Steve Scherf et al.
# Submitted via: dBpowerAMP V4.0
#
DISCID=6d05b30a
DTITLE=Kay Adams - Wheels Of Tears
DYEAR=1966
DGENRE=Country
TTITLE0=Little Pink Mack
TTITLE1=Six Days Awaiting
TTITLE2=The Reason We're Together
TTITLE3=Walk The Floor
TTITLE4=Big Mac
TTITLE5=That'll Be The Day
TTITLE6=Second Fiddle
TTITLE7=Big, Big Day Tomorrow
TTITLE8=Old Fashioned Cry
TTITLE9=The Worst Is Yet To Come
EXTD=
EXTT0=
EXTT1=
EXTT2=
EXTT3=
EXTT4=
EXTT5=
EXTT6=
EXTT7=
EXTT8=
EXTT9=
PLAYORDER=
